<mxfile host="65bd71144e">
    <diagram id="y8ZmUgT-Jkcy39h5Irbb" name="PÃ¡gina-1">
        <mxGraphModel dx="573" dy="636" grid="1" gridSize="10" guides="1" tooltips="1" connect="1" arrows="1" fold="1" page="1" pageScale="1" pageWidth="827" pageHeight="1169" math="0" shadow="0">
            <root>
                <mxCell id="0"/>
                <mxCell id="1" parent="0"/>
                <mxCell id="3" value="" style="shape=image;verticalLabelPosition=bottom;labelBackgroundColor=default;verticalAlign=top;aspect=fixed;imageAspect=0;image=data:image/png,iVBORw0KGgoAAAANSUhEUgAAAfoAAAHMCAYAAAA9Nmr5AAAAAXNSR0IArs4c6QAAAARnQU1BAACxjwv8YQUAAAAJcEhZcwAADsMAAA7DAcdvqGQAAFHKSURBVHhe7d0HfBRF+wfwhyYQkBIIvQgEDE2KGGroKlUEaYLUV17pBnjVAAq8CiEooYmAgi9CBBX5BxKIREWkhSKhl0AEIhISpKlIqCH3v2duLtmES+6O7F7Z+30/n/3czszmcrc3d8/O7OxsnrS0NAPlIE+ePHINAAAA7GEw5BhiHSKvfAQAAAAdQqAHAADQMQR6AAAAHXPKOfrff/+doqN/pOvXr4t03rx5qFKlivT88x2pTJkyIg8AAMDducI5eocG+qSky7Rs2WdUunQ5at26PZUq5SNLiC5fTqK9e3+m27f/oXHjxlKRIkVkCQAAgHvyqEC/d+8vFBkZRa+/PoaeeKKgzH3UnTu3aNWqZTRs2BDy9fWVuQAAAO7HY0bdX7hwkTZvjqbRoyfmGORZ4cJF6d//nkBffLGKUlJSZC4AAAA8Ds0DPR/MLFr0iWjJ2ypv3nw0dOhoWrx4scwBAACAx6F5oN+3L5aeeeZZyp8/v8yxTcGCXvTkkyXoypUrMgcAAADspXmg//nnn6lVqzYyZZ9WrdrR1q1bZQoAAADspXmgv3fvgdXz8tkpU6YCJScnyxQAAADYywHn6B9/xKGVCwIAAADACs0DfW6uzsur+asDAADQN81DaV5jtE5NTZUp+/z99w3y9vaWKQAAALCX5oG+ZcsWFBu7T6bss3v3z9SxY0eZAgAAAHtpHujbt29Ne/fukinbpaU9oD/+SKLKlSvLHAAAALCXA7ru89CQIa/RmjUrZY51fF5/9epP6fXXX5c5AAAA8Dg0D/SsQYN6VK+en03B/uHDh7Rq1RLq0qUT7mQHAACQSw69e93x46eMQTyMmjZtRU2aNMs0W979+/fowIHddOLEYRozZjSVL19elgAAALgnj7tNrdmuXTG0e3eM2AFxcaeoTp26VKjQE9S+fTtj67+B3AoAAMC9eWygVwoNDaVJkybJFAAAgH54zG1qAQAAwDkQ6AEAAHQMgR4AAEDHEOgBAAB0DIEeAABAxxDoAQAAdEzVy+vWrVtHFy9elCnb7Nmzh1q0aCFTtuH57/v27StTAAAArgnX0RvhOnoAANArXEcPAAAAmkKgBwAA0DEEegAAAB1DoAcAANAxBHoAAAAdQ6AHAADQMQR6AAAAHUOgBwAA0DEEegAAAB1DoAcAANAxBHoAAAAdQ6AHAADQMQR6AAAAHUOgBwAA0DEEegAAAB1DoAcAANAxBHoAAAAdc2qgT0lJoRMnTlBqaqrMAQAAADU5LdBzcA8NDaURI0bQwoULZS4AAACoKU9aWppBrluUJ08euaauOXPm0CuvvEK+vr70yy+/0NGjR0XQB326efMfWrcunC5evEQGQ45VzuXlzZvHeKB6jwYM6E916tSWuaC1Xbv20M8/7zDu+zSZo28FCuSlWrV8jb+TPSl//vwyN2eeto9cRU6flSv83jkl0K9cuZLq1q1L/v7+MocoKipKPHbt2lU8gr7Mm/cxtWrVgcqXryhz3NutW//Qpk3f0OuvDyNvb2+ZC1r56qtvKDHxCvXuPcDmoKcHJ04cpdu3r4pGkTWeuo9cRXaflSsEeod33UdHR4sfRmWQZxzgk5KS6ODBgzIH9OTvv2/qJsizokWfpP79h1FYWJjMAS2dPHnKuL8He1wAq1evAcXHn5OpnHnqPnIV9nxWjubQQM9B/OLFi9SjRw+Zkxl33W/dupUSEhJkDuiFm/fWW5QnTz4MJHUQLy8vueZ5bG0RevI+chWuelrSYYGeA/z3339v9Tz8pEmTaMWKFXTz5k2ZAwAAAI/LIYGeg/ayZcvo7bffljnZ426nKVOm0KxZs9BaAgAAyCXNAz0Haw7aHLxtPXdUpEgRCgwMpODgYJkDAAAAj0PzQM/BmoM2B297lC9fXoxeXLx4scwBAAAAe2ka6Lm7ngfecdB+HHwJnp+fH4WHh8scAAAAsIdmgZ6DM0+G06BBA5nzeDp27Eh3796lXbt2yRyA7FWpUkKuATzKFeuHO9ZZd3vNnv67oEmg37Nnj5jHnoO0GgYMGCBmzzt79qzMAT0JCGhE8fGnZcrku+8ixJfzu+8iZY7Jr7+eptatG8tUzjz9y+1J+LO2tng6d/qerVixxNhQLEv/+98ymWM7fNaPUj3QczDeu3cvDRo0SOaogy+7W716NV25ckXmgF60bduRtm/fKlMm+/fvoYoVK9G+fbtljklMzE6xfXZ+//0vuQaehD935ZJdnidzp+/Z+vVraebMufTtt2tkTu54+uevaqDnILx27Vp68803ZY663nnnHTE4j3sLQD/atetIO3b8JFMm+/fH0JgxE40HjZlP2ezZk/EDxEfuX321mpo2rUNVq5ZMz8v6aF7MfvxxC3XuHCBaDK1aNaRFiz7KdCknb5v1eUE/tm6Npp49X6C6datQo0Y1KTDwDfrzzxuyNPvP31q9OX/+LI0cOZieeaaaeO5///s1unHjuiw1Wbdujfjb6tV9qE2bZykiYr0s0Z67fM9OnjxOXl5FqX//QWICmlOnTsiSDPzcXbu2pZo1yxnf13O0ceO3Ij+712N+NFuzZqXo4eDPgR/Xrl0lS0x4e2v1xJ2oGugjIiJEy1urKRh55P7YsWPF/wH9aN68NR05cpDu3Lkj0jdv/k1JSZeoX7/XxKP5xzItLY0OH441bh8g0iwi4lsKD/+BLlz4U+aYmI/gza05czo2dh/NnTuTPvjgIzp+/Df68stw+uWXvbRsWeY7KGb3vOD+Zs+eQW+99a7xc4+j6Ohdol5Nm5Z5jo+sn78t9WbUqCE0ePAI8bz79p2gcuUq0Jw5/5WlJILsggVzjM/ziXiOkJCFxmWGLNWeu3zP+GBoyJDXxXq/foMeadVv2/Y9TZ48gSZODDK+zl9p6dJVxs9xkyjL7vUoRUdvFgcdc+YspGPHEsTjwoVzRGBXsqWeuAtVAz3PemfvZXT2KlOmjDhnD/pRuHBhatCgcXr3If8gNGnSlAoUeIKee66ZMT9G5J86dZyefrqO2N5s+vQQ0fVoq3nzQuijjxYbn7+ZeJ6nnqou0vzjomTv84L7WLToM2rRorX4rSpbtpzxsw6mnTu3yVKTrJ+/LfXm++9jjM8bQIUKFaInnyxGb7/9Xqau8sWLQ+n99z+kZs1aiv/dvHkrmjFjjizVnjt8z1JTH1BMzHbq0uUlke7Vqx9t2RIp8s0+/pj34xzq0KGTuOeEn18d4wHEallq3aeffmz8+49EHShatKh4/O9/P6QlSxbILUxsqSfuQpPBeAD2atfueeOPoqlbkbsT+QvGmjVrlf7DZOm8oa9vTblmG/4R69GjI1WrVsr44+Mtugy56/DixQtyCxN7nxfcR+3a9eSaSalSPo90yWb9/G2pN5cuXaQ33hhEjRr5iq7fOnUq05Urf8hSojNn4sjfv7lMmXDQdyRX/55t3fo9vfBCV3HwwYoXL2E8CGlubMX/KNLs5Mlj6a/7cZw9e+aR/c4HXTwAUcmWeuIuEOjBJbRt24F27DC1frhlwV88xo/m84em84YdxLqZ+QfBVjy+Y//+k5SQcJ1+++2G6DLk7j1OK9n7vOA+8ua1/rOX9fO3pd5MnDjKGNh8jS3QXXT+/DVj4LhMDx8+lKWuccMTV/+ecTc993yYz6/zwuMYlN33hQpl9DSoKest2W2pJ+7CZd6JFve9B/dRs6Yf3bt3T7R6EhN/Tz+a5ls/Jicn0dWrf1BSUqKxBfC0yLcFjxVR/tCy+vUb0g8/fCdTALaxpd4cPXqIxo37D5UrV17UvSNHDskSE+5i5u5yJXN3uaO48vfs+vVrYn+cOpWYfn6dl1OnLhoPPnaljyGoXbuuSGfH0utR4vfGVxso8f+15z27m8cO9ByYmzfP3A2l1KxZMwRvsEubNh0oNHQWPfusf/rRdL58+cR5xGXLFonzffaoUKES7d69XQyiMZs0aTJ9+OEHtH79V6Ibjn9cfv75R+rfv7vcAuBRttQbbs1/9dUqMdjt+PEjYsCY0ujRE8RgLg4q3OLdu3c3zZjxjix1HFf9nm3YsI6ef76zOG+uxOfhO3R4MX1kfWBgkNhv27b9QLdu3RIHLSNHDhFlzNLrUXrjjXE0ffrbYv8rP4fRowPlFvqTqxb9X3/9RTt27JCpDNu3b6e///5bpmzjqvfxBcfh84c8IlY52pdxOizs80fOG1ozdeoHNGXKRKpRw0d0AbKWLdvQZ599Ka7Tbd68nvE5m4jJOcaPf0uUA1hiS72ZO3cxhYd/Y2wdVxWX1g0aNFyWmHD95u25i79+/afonXfGU1CQ40bdm7nq94y37dPH8kDrvn0Hpnff82kGHjz30UcfUMOGNWjUqKHUuXPGAYSl16PUqVM3cUnh22+PM34OVcXjuHFvUceOneQW+pPHeNSTY4TNrlXO+XzNfFhYGH33XeYums6dO9OQIUPo1VdfTQ/g8fHx4g52P//8s+hWad++vbEifEalS5cW5fx85m15PTIykmbPnk2nTp2iggUL0gsvvEALFiygUqVKiW3AvUybNotGjBgrU/qxbt0KcUkpaCs4eI4xcI6UKc8SFrbM+NtpveXvyfvIVVj6rFyhEZurFn2/fv3owoULdOzYMZnD56mO0sWLF41HYH1ljkmfPn2MR1FjKDExUfxNxYoVafLkybL0UUFBQTRz5kyx/eHDh0U3zLhx42QpAAAA2CJXgZ7P70ybNo1CQkJkDol1zss6YpEPANq1ayeuqSxevLi4R310dOYJCpS+/PJL0ern8zUVKlSg+fPn0w8//CBLAQAAwBa5CvSMW+rcvZ6QkCCWuLg4kZcVt+L5/vI84Q13zXOwT05OlqWPynrXO/6769czX5oBAAAAOct1oOeW+9SpU2nu3Ln00Ucf0bvvvmvxvP7QoUOpVq1aohv+wYMHYmRqTpdAZO0RAAAAAPupEk179+5NsbGxdPDgQdFqt+TAgQPigIDPzfN1jnzbWQAAANCWKoGeW/D79+8Xi6XWPOPW/PLly+n27dvigGDkSIwOBQAA0JrD+sc///xzMcCuZMmS1KtXLxo1apQsAXBfyttugnZSU7M/zQcm2EeQnccO9LZcG6jcplGjRqIlz9Mv8sA8vlROWZ7dupIt/xNcleVZqtzZyZOHxCBRcIS0R26I4gm4B/T27VsyZY1n7iNXYd9n5VgY8QYOUaeOH+3cabprlh6cO3eGtm//kQYNGiRzQEuBgeNp/fovPS6Qbd26iXr2fFmmcuap+8hV2PNZOdpjz4wHYK+lS5fR1avX3P7OcGlpD6lQoSdo7NixYtZGcIybN2/SokUfG9fyUL58+U2ZOpY/f14ROHx9fWWOdZ62j1xFTp+VK/REOz3Q79mzh1q0aCFTALmHOgVqQn1yDL3uZ1cI9E7vut+7N/NtGwFyC3UK1IT65BjYz9rBOXoAAAAdQ6AHAADQMQR6AAAAHXN6oG/evLlcA1AH6hSoCfXJMbCftYPL6wAAADSCUfcAAACgKQR6AAAAHUOgBwAA0DGnB3qeDQlATahToCbUJ8fAftaO0wM9ZkMCtaFOgZpQnxwD+1k76LoHAADQMQR6AAAAHUOgBwAA0DGnB3rMhmS74OBg6tatm0wRdenShUJCQmQKzFCnQE2oT46B/awdzIynAd5nas+GlJKSQk899ZQYmVqzZk2Rd/r0aWrdujVduHCBChcuLPIAAMB1YGY8F3P16lUqW7Ys3bt3T+aY9OzZU66Z3L17l8qUKSO2t0T5wap1oBQeHk4tWrRID/LMz8+PmjRpQhERETIHAAAgMwR6BR8fH2rWrBlFRkbKHKIbN26I9LVr12QO0YYNG6hly5Zie0fZtGkT9enTR6Yy9O3bN9PrBQAAUHL5QM8t4rCwMKpbty4VKVJEnMc5ceKELCVKS0ujmTNnUrVq1cjb25uGDx8uurmZr68vnTp1SqyzVatWyTUSz6FsHZsNHTqUVq9eLVOmSRz4fygnc/jiiy/Edoxf34oVK6hy5cqUN69pd5pb8cpH8zrL6TUzS88ZGxtr8RwWH3D88ssvMgUAAJCZ0wO9LbMhcbd1VFQUXblyhTp37kwjR46UJUQLFiyg7du307Zt2+jcuXP04MEDmjZtmih78cUXaceOHWI9MTGRxo0bR//8849I79y5U5RnxYPdDh48KP4Xi4mJEdvxI7t06RIdO3ZMDIQz27x5M+3fv18EcCVzFz4/Krvzc3rNZlmf8/Lly1S+fHmxrlShQgVKSkqSKWCYYQvUhPrkGNjPGjIGEkNOi9bmzp0r1ywzvkRDcnKyTBkMxpavoXDhwjJlMPj5+RlOnz4tUwaDMSAaqlatKtYjIiIM/fr1E+shISEGHx8fw/Lly0W6b9++hsjISLGe1fjx4w3z588X6wEBAQZjBTQYW84iHRwcbAgMDBTrjF/fb7/9JlMmnGemXDfL6TUzS89ZqFAh8d6z4jwvLy+ZAmatTgHYA/XJMfS6ny3FVUcvbnGOvly5cnKNyBjU6M6dOzJFYsQ5D0ozd4/zthcvXhRl7du3T59Wcc2aNbRy5UqxsH379lG7du3EelbDhg0T3ff379+nv/76S3SZ87l6HqTH3f/mbnuzKlWqyDXb5PSazbI+J7fmLbXcuYdBuX8AAACU3CLQ54QDYkJCQnr3OC8PHz4UZUWLFqXq1avTunXrxOVnXbt2pdTUVNq4cSPVqFFDlFvSsGFD0WXO5+KbNm0q8vhx8eLF4nkaNGgg8sw4WGfHUllOr9ks69/x6Hrz6QMlzvP395cpAACAzNw+0I8aNYpGjBhBcXFxdPv2bTpw4AD16NFDlhJ16tSJJk6cSK+99ppIDxw4UJyr5/ycDBkyhKZMmUJt27YVaX6cMWPGI615a0qXLi1em5K112wJjx1Yv369TGXgvO7du8sUAABAFln78rMuWjO2SOWaZcaXKNcyKPOMLWHDokWLxHlvPldtbPmKc/Nmhw8fNuTPn99w5coVkf7jjz9E+siRIyKdHd6+QIEChsTERJE2tsBF2vw8ZtZeX2hoqKFEiRJ2vWZLz8nn4o0HDYYzZ87IHIM4z8/jDowHCzIHmLU6BWAP1CfH0Ot+thRXHb1gZjw3Mnv2bNq9e7e4AoHxqYiAgAAKCgoSab1JTk6mQ4cOUceOHalgwYIyFwDAfRhjvVxzHgR6cGl8UPP2229Tv379aMCAAWJuBAAAd4FAD2CDzz//nN577z3xheFBia+//roYY4FWPgC4OgR6ABtxsDdPKlSqVClxvwEeYIlWPgC4MlcI9G4xMx7Av/71L3r//ffFOt9MiGc45LkReKZEvuqAb+xjvhkR6hSoCfXJMbCfteP0Fr2laV0B7JE/f35x1Mwt/aVLl4pJkiZNmiRLAXInNDQU9ckB9Lqf0XVvhC8R2IrvecBzIBjrrEjzDYH4PD3XUZ7NkO/kx7cPRp0CNaE+OQYCvXbcfsIc8AzmIM+qVq0qpkLm+/PPmzdP3IRo7NixIsgDAEBmCPTg8jjIjx8/Xtyyl+f150F43D2/fPny9JkLAQDAMqcHekv3WAcw43vt83X0POguLCzMptY76hSoCfXJMbCftYPL68Bl8cx40dHRYgZAdMsDgDvCYDwAAAAdw2A8AAAA0BQCPQAAgI45PdBjNiRQG+oUqAn1yTGwn7Xj9EDPl0kBqAl1CtSE+uQY2M/aQdc9AACAjiHQAwAA6BgCfQ6Cg4OpW7duMkXUpUsXCgkJkSkAAADX5/RA76qzIaWkpND8+fPFYsbzqvNy584dmQOuCDNsgZpQnxwD+1k7bj1hDr82NSYjsPQ8PN3q+vXrxX3OlbhVP3jwYOrfv7/MAQAAsAwT5riwTZs2UZ8+fWQqA98KNTIyUqYAAABcm8sH+p9++okaN24sbktap04dWrt2rcg39zTwo7LXIT4+nnr37k2lSpWiEiVKUK9evejatWuy1LT9ihUrqHLlyuJuaNk9T2xsrMWupJYtW4obrQAAALgDlw/0gwYNoqlTp9KNGzfE7Uo3b94s8s3dIfyo7BrhVviYMWMoMTGRLly4QBUrVqTJkyfLUhN+jv3791NaWlq2z3P58mUqX768TGWoUKECJSUlyRQAAIBrc3qgtzYbUv78+UVgvXr1Kvn5+aW36LNz9OhRateuHRUuXJiKFy9Os2bNEndAU1q4cKEI2DlRBn2lrC1/cD2YYQvUhPrkGNjP2nF6oLc2G9LGjRtp27Zt1KhRI6pVqxZt2bJFlljGXe4dOnQgb29vEZA52PPtTpWqVKki17LHrXlLLfdLly5RuXLlZApcEWbYAjWhPjkG9rN2XL7rns/Pb9iwQbTo+VK34cOHy5KM8/RKPBp+yJAhdPbsWUpNTRVd/g8fPpSlJln/ztLzNGnShGJiYmQqA+f5+/vLFAAAgGtz+UD/8ssv0+HDh+nevXsirQzKpUuXpri4OJky4evfixUrRkWKFBHn6EeMGCFLsmfpeXiiHL68LivO6969u0wBAAC4NpcP9Nw6HzZsmOiKf++992jNmjWyhCgoKIhatGiRKfh//vnnIv/JJ58U5+rbtGkjS7Jn6Xl45P6+ffvEKH6zM2fOiBH3PXv2lDkAAACuzekT5vAADA6yrmj27Nm0e/duioqKEumuXbtSQECAODAA7fHYikOHDlHHjh2pYMGCMtc6V65T4H5QnxxDr/s5u4HdjuTWM+OB/vFBFh9Y8WWTAwYMIF9fX1kCAOD6EOgBbMCXQ86ZM0d8YZo1a0ZDhw6lTp062dXKBwBwBgR6ABuZgz3Pj8CzHt68eVO08NHKBwBXhkAPYAdly55VqlSJ/vnnH6pduzZa+QDgkhDojSxNMwtgD27l379/X7T0ly5dKvIweArUgsF4joHBeNpxeqAPDQ2lSZMmyRRA9r7//nt6/fXXxURIjFvvRYsWFdMkcz7fWbBMmTKoU6Aq1CfH0Ot+doVA7/LX0QMwZZDnlnuhQoXEPAmLFy+mI0eO0NixY0WQBwCAzBDoweVxkOepj/nIuGzZsjRy5Ehx98GVK1dS27Zt5VYAAGAJAj24NJ6JcPTo0fTCCy/Ql19+idY7AICdnB7omzdvLtcAMuOZ8U6ePCnuamVP6x11CtSE+uQY2M/aweV1AAAAGsFgPAAAANAUAj0AAICOIdADAADomNMDPc+GBKAm1ClQE+qTY2A/a8fpgZ5HVAOoCXUK1IT65BjYz9pB1z0AAICOIdADAADoGAI9gAMFBwdTt27dZIqoS5cuFBISIlMAAOpzeqDHbEigNletUykpKTR//nyxmM2bN08sd+7ckTngavAb5RjYz9rBzHgAClzf1ZjJytLzhIWF0fr16ykiIkLmmHCrfvDgwdS/f3+ZAwB6gZnxADzIpk2bqE+fPjKVge+jHxkZKVMAAOpCoAeP89NPP1Hjxo3Jy8uL6tSpQ2vXrhX55t4rflT2ZMXHx1Pv3r3FffBLlChBvXr1omvXrslS0/YrVqygypUrU968ebN9ntjYWIvdky1bthR36QMA0AICPXicQYMG0dSpU+nGjRsUHh5OmzdvFvnmLjZ+VHa3cSt8zJgxlJiYSBcuXKCKFSvS5MmTZakJPwffIz8tLS3b57l8+TKVL19epjJUqFCBkpKSZAoAQF1OD/SYDQnUZq1O5c+fXwTWq1evkp+fX3qLPjtHjx6ldu3aUeHChal48eI0a9Ysio6OlqUmCxcuFAE7J8qgr5S15Q+uBb9RjoH9rB2nB3rMhgRqs1anNm7cSNu2baNGjRpRrVq1aMuWLbLEMu5y79ChA3l7e4uAzMGe75WvVKVKFbmWPW7NW2q5X7p0icqVKydT4GrwG+UY2M/aQdc9eBw+P79hwwbRoudL3YYPHy5LMs7TK/Fo+CFDhtDZs2cpNTVVdPk/fPhQlppk/TtLz9OkSROKiYmRqQyc5+/vL1MAAOpCoAeP8/LLL9Phw4fp3r17Iq0MyqVLl6a4uDiZMuHr34sVK0ZFihQR5+hHjBghS7Jn6Xl4ohy+vC4rzuvevbtMAQCoC4EePA63zocNGya64t977z1as2aNLCEKCgqiFi1aZAr+n3/+uch/8sknxbn6Nm3ayJLsWXoeHrm/b98+MYrf7MyZM2LEfc+ePWUOaIlPuURFRaUf5AF4AqdPmMMDMPgHEUAtrlynZs+eTbt37xbBhnXt2pUCAgLEgQE4Bu97vmqCD7wGDBhAvr6+ssQy/EY5hl73c3aDcB0JM+MBgMfhA67FixeLyyE5uPDMhJ06daKCBQvKLQDUgUAPAOAk77//Pi1btkyMpyhZsqQYnMkDL21p5QPYCoEeAMCJONgvXbpUrD/xxBNUo0YNMbFR7dq10coHVSDQA2jA0uxzAPbg6Y7/+usv8cgHAjhHD48Lgd4IA11AbahTYKudO3fSa6+9Rg8ePJA5JK6u4FY8X0bJXfk8fwLqk/YwGE87mBkPdAd1CmyhDPI8vTF33bdv354+++wzOn78OI0fP57KlCmD+uQg2M/awXX0AOBxOMjzoDue4ZAH4wUGBtKBAwfEnApt27aVWwHoAwI9AHgUnqCIJ0ziiY84sCtb7wB6hEAPAB6DZ8Y7efKk6CZG6x08Rb7p06fPkOsWOWLUfeXKleUagDpQp8ASHmjHdy3k+xbYA/XJMbCftYHL6wAAADSCUfcAAACgKQR6AAAAHUOgBwAA0DGnB3qeDQlATahToCbUJ8fAftaO0wM9ZkMCtaFOgZpQnxwD+1k76LoHAADQMQR6AADIJDg4mLp16yZTRF26dKGQkBCZAneDQA8AAOlSUlJo/vz5YjGbN2+eWO7cuSNzwJ04PdA3b95crgGoA3UK1OTO9elxJjwLDw8Xt4utWbOmzCHy8/OjJk2aUEREhMxRH7632sHMeAAAOsW/3/bOzNa3b1966aWXxC18lb744gv64YcfaO3atTIHbIGZ8QAAdMDYYKKZM2dStWrVyNvbm4YPHy66wNmoUaNo5cqVYt3sf//7H40ePVqs5/S3LDU1laZNm0ZVq1al8uXL05IlS2SJ5YaYOU/5qNzO2v+LjY212Lpu2bKluPMfuB8EegCAXFqwYAFt376dtm3bRufOnaMHDx6I4MwWLVokWsPr1q0TaX5ctWoVLVy4UKRz+ls2Z84c2rVrlyg/fPgwnThxQpbkzNyS5Edlq9La/7t8+bI4oMiqQoUKlJSUJFPgTtB1DwCQS7Vr16aNGzfS008/LdJ//PEHNW3alH777bf0NLeS+/XrR9988424Zrxs2bKizNrf8rnyDRs2UL169URaiX+fs3YNK/MslVv7f4ULF6br16+Tl5eXSJvdvn2bfHx8MrX+wbqs+98ZnN6ix2xIoDbUKVCTLfXpwoULYsAaB1ZeypUrRxcvXpSlJIL6oEGDxCVqY8aMSQ/yzNrfJiYmkq+vr0zlnrX/x615Sy33S5cuiW21gu+tdpwe6DEbEqgNdQrUZEt9qlKlCiUkJIjWm3l5+PChLCU6evSoOC/PI9r5MrWzZ8/KEut/y/doV26vVKhQIdHSNuNudyUO5FlZ+388uj4mJkamMnCev7+/TKkP31vt4Bw9AEAu8YC7ESNGUFxcnAi8Bw4coB49eogy7urm1vyXX35JPXv2pE8//VR04ZuvSc/pb9nQoUNp3LhxdP78eRHIzYP42LPPPktz584V/4OD9xtvvCFLTEqXLi2eV8na/+OJctavXy9TGTive/fuMgVuhc/R57RozVhJ5RqAOlCnQE221Cdji9iwaNEig5+fn8HLy8tgbBUbIiIiRNngwYMNn332mVg3M7bqDcOGDRPrOf0tu3//vmHKlCmGSpUqGcqXL29YunSpLDEYjh8/bmjWrJn4u9q1axtWr17NJ4RlqcEQGhpqKFGiRKY8a//PeNBgMB4gGM6cOSNzDIbTp08bfHx8DMYDA5mTs6SkJMPmzZsNd+/elTnW6fV7aymuOnpx+mA8Y0WkSZMmyRRA7qFOgZo8sT7Nnj2bdu/eTVFRUSLdtWtXCggIoKCgIJG2Bf+t8QCFXnnlFRowYIDVcQZ63c/GWC/XnMfpgZ4HYPAsTABqQZ0CNaE+PT6+Xn/p0qXi2n3eh4MHD6ZOnTpRwYIF5RYZ9LqfEegBAEDXJkyYIC4p5Mv5OMDzCH8eo2BLK18PEOgBAED3ONh//fXXYp0v3+NZ+eLj46lWrVo5tvL1AIEeAMANWJopDnInf/789NRTT4mrBUqVKiW6+NF1rw0EegAA0BRfI//qq6/SvXv3ZA7RE088IWbh48sHeb79MmXKyBJ9cYVAj5nxQHdQp0BNqE+5owzy3HDkljxPucvz/Z8+fVqM5Ocgj/2sHcyMB7qDOgVqQn16fLzv+La39+/fp+LFi9P48ePp4MGDYq79tm3byq1MsJ+1g5nxAABAdXxL24EDB4rZ+/ge9srWOzgWAj0AAKgqOTmZTp48Sfv27bPYegfHQqAHAABV8VUKw4YNQ+vdRTg90PM9mgHUhDoFakJ9cgzsZ+3g8joAAACN4PI6AAAA0BQCPQAAgI4h0AMAAOiY0wM9ZkMCtaFOgZpQnxwD+1k7Tg/0mA0J1IY6BWpCfXIM7GftoOsewAUFBwdTt27dZIqoS5cuFBISIlMAALZDoAdQWW4vSU1JSaH58+eLxWzevHliuXPnjswBALANAj2AypTXzT5O0A8PDxf35a5Zs6bMIfLz86MmTZpQRESEzAEAsI3TAz1mQwK1uXud2rRpE/Xp00emMvBdwCIjI2UKHAW/UY6B/awdpwd6brkAqEmNOuXr60unTp2SKRL3zjY7ceJEemubW+wrVqygypUrU968pq+TuRWvfFS27NPS0mjmzJlUrVo18vb2puHDh4vuerPY2FiLP3otW7YUdwQDx8JvlGNgP2sHXfcAFrz44ou0Y8cOsZ6YmEjjxo2jf/75R6R37twpys02b95M+/fvFwFcydyFz4/K7vwFCxbQ9u3badu2bXTu3Dl68OABTZs2TZYSXb58WdwUJKsKFSpQUlKSTAEA2AaBHsACZaBfs2YNFSpUiL755huR5nxloF+4cKEIwrZavnw5ffLJJ6JFX7JkSZo7dy793//9nyzNfm7srD0DAAC2QKAHsKB9+/bp1/VyoF+5cqVYGN9ju127dmKdValSRa7Z5sKFC2JwnTlwlytXji5evChLTbf4tNRyv3TpktgWAMAeTg/0mA0J1KZGnSpatChVr16d1q1bR4ULF6auXbtSamoqbdy4kWrUqCHKzXJqZVsq4wODhISE9C59Xh4+fChLSYyuj4mJkakMnOfv7y9T4Cj4jXIM7GftOD3QYzYkUJtadapTp040ceJEeu2110R64MCB4lw959uqdOnSFBcXJ1Mmo0aNohEjRoj827dv04EDB6hHjx6ylMREOevXr5epDJzXvXt3mQJHwW+UY2A/awdd9+DReLQ7X7d+8+ZNmZOBz8P/8ccf1L9/f5HmRx4opzw/b01QUJAYTaxs2fPBwksvvUS9evUiHx8fGj16NP3rX/+SpUS9e/cWpwfi4+NlDtGZM2fEiPuePXvKHAAA2yDQg0c6evQovfPOOyIIV6pUiYoVKyZLMjRs2FCMiOdgzMqUKSPSDRo0EGlmaeCcMo97BP78889MeXwZHgd7btHzgQa36Dnwm3l5eYm/mzBhgswxPQ8vfBoBAMAeCPTgMTiohoWF0QsvvCC63/n8O4+Ad8Xz3pMnT6aoqCiZIrHOvQMAAPZyeqDHbEigtqx1ytx655Y4X9Z2+vRpMZiOL5fD4DawBr9RjoH9rJ08aWlpli/alXIaUQzgqszn3rkFzxPe8HXwycnJooyDPF8yhyAPAFqzdHrP0RDoQXe4m5vPgd+/f5/y5csnHgHA9ZkPxvUEgR5AI3y9O9/m9ddff830ReOR8zyzHZ+f5/nsAQC0hEAPoLErV67QrFmzxHz0fM0669ixI508eRLBHgA05wqB3umD8TAbEqhNWaf4kjiei55vHrN06VKqVasW/fTTT3T16lV65ZVX6OzZs3JLAMvwG+UY2M/acXqgx2xIoLbs6tTLL78suu2PHDkiJqvhOeUR7MEa/EY5BvazdnAdPXgccys/OjpadOn//PPPFmfGAwDQAwR68GiVK1cW885bmhkPAEAPEOgBAAB0zOmBHrMhgdpQp0BNqE+Ogf2sHVxeBwAAoBFcXgcAAACaQqAHAADQMQR6AAAAHXN6oMdsSKA21ClQE+qTY2A/a8fpgd4VZ0MKDg6mbt26yRRRly5dKCQkRKbA1WGGLVAT6pNjYD9rB133WfB9zPmuZ7yYzZs3Tyx37tyROQAAAO7BrQO9Fpf+hYeHU4sWLahmzZoyh8jPz4+aNGlCERERMgcAAMA9oEWfxaZNm6hPnz4ylaFv374UGRkpUwAAAO7B6YHe2mxIfEvRxo0bk5eXF9WpU4fWrl0r8s2teX5Utuzv3btHgYGB4s5k5cqVE+ucZ8bbLlmyhGrUqEGlS5emsWPH0v3792UpUWxsrMXX1LJlS/rll19kClwZZtgCNaE+OQb2s3acHui5mzwngwYNoqlTp9KNGzdEtzrfbYyZZxviR+XMQ7NmzaKTJ0/SgQMHRNA+duyYGFyntGHDBtq5cycdPXqUzpw5Q7Nnz5YlRJcvXxYHCVlVqFCBkpKSZApcmbU6BWAP1CfHwH7WjstPgVulShV66623xL3E+U5jSvzask4vyC117n7n1j87ceKE+FvzPcf5b/hAwFzO6z169EgvL1y4MF2/fl30ICjdvn2bfHx8xGA9AAAAW2AKXBts3LiRtm3bRo0aNaJatWrRli1bZIll3OquXr26TBH5+vrSpUuXZMpEWc4HBspybs1barnzNnwqAAAAwJ24fKDn8/Pc1X716lVxydvw4cNlieXeBu5iP3/+vEyRaKlXrFhRpkwSEhLkGoltleU8uj4mJkamMnCev7+/TAEAALgHpwd6a7Mhcbf74cOH0wfUKYM7D6aLi4uTKZNXX32V3nzzTUpMTBQLr3Oe0oQJE0QLnRdeHzhwoCwhMVHO+vXrZSoD53Xv3l2mwJVhhi1QE+qTY2A/a8fpgd7abEhDhgyhYcOGkbe3N7333nu0Zs0aWUIUFBQkBnAog/+7775LtWvXFi1zXurWrSsG8ym99NJLFBAQQM8884zoup8yZYosIerduzft27eP4uPjZQ6JAXs84r5nz54yB1wZZtgCNaE+OQb2s3Zcvuueg+uRI0fEYLhDhw5Ru3btZAnRxIkT6c8//8w02KFQoUK0aNEiMXqeF17nPKXRo0eLLnsedMeX2hUsWFCWkBiEx8/LLX0zTvPCA/XAcZKTkykqKirT5ZEAAGAflw/0zjB58mQRYMx4nXsPwLHMlzk2bNiQxowZk35lBAAA2A6BHlxa165dac6cOeLqCz7dwhMXff3112jlAwDYyOmB3tGzIbnCNY1gHx5TsXTpUnGKhU+5TJo0iZ5++ulsW/mYYQvUhPrkGNjP2nH5CXMAzPheA3wVxd27d2UOUf78+cWkSuPGjRPjOZTjLQAAnM0VGpdOD/SWppsFsEfVqlXFpZSlSpUSLX9MpQkArgKBHsAOfHnlihUrxDpPR1yvXj1xZcWtW7do8ODB4g6DZcqUEeUAAK4AgR7ARuYgz1Ma80yGPIlS69atxWRHbdu2lVsBALgWVwj0Th+Mh9mQwJp58+bRqlWr6IknnhCj7Vu1akW7du2i5cuXWwzyqFOgJtQnx8B+1o7TAz1mQ4Kc8IyEn376Kb344osi2HN67NixOXbRo06BmlCfHAP7WTu4jh5cFs+Mx7cRzqn1DgAAOUOgB5fFV2TwfQ4wwA4A4PEh0AMAAOiY0wM9ZkMCtaFOgZpQnxwD+1k7uLwOAABAI7i8DgAAADSFQA8AAKBjCPQAAAA65vRAj9mQQG2uWKeCg4OpW7duMkXUpUsXCgkJkSlwZfiNcgzsZ+04PdBjNiRQm6vVqZSUFJo/f75YzHhaX17u3Lkjc8BV4TfKMbCftYOuewAFLa4yCQ8PF7fOrVmzpswh8vPzoyZNmlBERITMAQDQBgI9gMY2bdpEffr0kakMfFvdyMhImQIA0AYCPXicn376iRo3bkxeXl5Up04dWrt2rcg3t+b5Udmy5zvmBQYGiil5y5UrJ9Y5z4y3XbJkCdWoUYNKly4tbrpz//59WUoUGxtrcTKQli1bipv0AABoyemBHrMhgdqs1alBgwbR1KlT6caNG6JbffPmzSLfPLEFPyonuZg1a5a4uc6BAwdE0D527JgYXKe0YcMG2rlzJx09epTOnDlDs2fPliVEly9fFgcJWVWoUIGSkpJkClwVfqMcA/tZO5gZDzxOlSpV6K233qKXX36ZKleuLHNNuL5nncmKW+rc/c6tf3bixAnxt2fPnhVp/hs+EDCX83qPHj3SywsXLkzXr18XPQhKt2/fJh8fHzFYDwD0CTPjATjBxo0badu2bdSoUSOqVasWbdmyRZZYxq3u6tWryxSRr68vXbp0SaZMlOV8YKAs59a8pZY7b8OnAgAAtIRADx6Hz89zV/vVq1fFJW/Dhw+XJZZ7sLiL/fz58zJFoqVesWJFmTJJSEiQayS2VZbz6PqYmBiZysB5/v7+MgUAoA0EevA43O1++PDh9AF1yuDOg+ni4uJkyuTVV1+lN998kxITE8XC65ynNGHCBNFC54XXBw4cKEtITJSzfv16mcrAed27d5cpAABtOD3QYzYkUJu1OjVkyBAaNmwYeXt703vvvUdr1qyRJURBQUHimndl8H/33Xepdu3aomXOS926dcVgPqWXXnqJAgIC6JlnnhFd91OmTJElRL1796Z9+/ZRfHy8zCExYI9H3Pfs2VPmgKvCb5RjYD9rx+mD8UJDQ2nSpEkyBZB7jq5T/B2xNuCGR+Hv3r2boqKiRLpr167iwIAPLMBxkpOT6dChQ9SxY0cqWLCgzM0ZfqMcQ6/7GYPxADzE5MmT04M843UEecczX+bIAzF5/5uvjADQMwR6APAo3Jsyc+ZMWr16tehV6dChg5iKWDkJEoCeINAD5JIrdM2BfXr16kWLFy+mAgUK0KlTp8RshzwPAlr5oEf5pk+fPkOuW6T1OXqWddISgNxCnQJreIBl1apVaevWraI1/+DBAzp+/LgYnMkTJJUoUYKqVatG+fLlQ31yEOxnbWBmPNAdS9PNAtijWLFiYsbCUqVK0dKlS8WVGACPwxV6/BDoAcBjLVy4kObMmSN+jPPnzy+672/duiVa94MHDxZ3GCxTpozcGsB+CPQAAE5iDvLFixcXUxj/+uuv1KZNGzHZUdu2beVWALmDQA8A4AQff/wxffjhh+L3je83gNY7aMUVAj1mxgPdQZ2CnPCMhBzoO3XqJC6x4/TYsWOzDfKoT46B/awdpwf6vXv3yjUAdaBOQXZ4Zjy+jTDPUrh8+XKbuuhRnxwD+1k7uI4eADwGX5HB9zlAFz14EgR6AAAAHUOgBwAA0DGnB/rmzZvLNQB1oE6BmlCfHAP7WTu4vA4AAEAjuLwOAAAANIVADwAAoGMI9B7ImadjgoODqVu3bjJF1KVLFwoJCZEpAABQm9MDvSvPhoTxCfaxtr/4bmDz588Xi9m8efPEcufOHZmTe5hhC9SE+uQY2M/acXqgtzYbkjODrZqDKHLzPnhObr6z1ty5c2VO7l29epXKli0r7sOt1LNnT7lmcvfuXTG5CG9vjXJ/WXq/4eHh4nafNWvWlDlEfn5+1KRJE4qIiJA5uYcZtkBNqE+Ogf2sHXTdu7i0tDT69NNPacGCBeK+2JxWg4+PDzVr1owiIyNlDtGNGzdE+tq1azKHaMOGDdSyZUuxfW5t2rSJ+vTpI1MZ+GYiytcBAADqcelAb24V8qOyhcjBbubMmVStWjXy9vam4cOHi25hM952xYoVVLlyZcqb1/QWOY8DZf369cnLy4vq1asn5rv+4osvqFatWlS4cGFxHefp06fF9kz5P3k9LCyM6tatS0WKFBHbnjhxQpYSxcfHU+/evalUqVJUokQJ6tWrV3rAND8PPyqf09r7YFu2bBHPxzfd4OeOjo6WJSbWXtf9+/dpzJgx4m99fX3FPjAbOnSouKmHGXed8WtSdqHx/uHtWE7vkSnfp/lR+X5jY2MtXivLBxJ8YxEAAFCfSwd6c1cwPyq7hbl1u337dtq2bRudO3eOHjx4QNOmTZOlJps3b6b9+/dnagFHRUXRxo0bRTf0gAEDxEAwbrFy8OSA1b17dxo5cqTc+lHc9czPceXKFercuXOmbbmlygE1MTGRLly4QBUrVqTJkyeLsty8j08++UQEeTZ69GhasmSJWFfK6XXx4DcO0MeOHRP/69tvv5UlJAbFHTx4UPwdi4mJoRdffFE8skuXLom/4/3EcnqPStm938uXL4u5xrOqUKECJSUlyRQAAKjKGAgNOS1aMwYVuWaZ8SXKtQx+fn4GY8tbpgwGYwAxVK1aVaZMf/Pbb7/JlAnnGYOJTBkMxpazyEtOTpY5pjxjy16mMv9va9tm9ffffxsqVaokU4/3PozB3+Dj42O4c+eOSPMjp8+fPy/SzNrrqlGjhuHkyZMyZTAcP34802sZP368Yf78+WI9ICDAYGzNG4wtbJE2HiQYAgMDxbolOb1HS++3UKFC4vVlxXleXl4ylXvW6hSAPVCfHEOv+9lSXHX04vRAb42lgMGBjPOVS968eWWp6W+yvnbOy8paXnbrZsq8AwcOGNq3b28oWbKkyOclX758stTy31t7H//5z38eKeflrbfekltYf10cXM0HCozXleWHDx82NGrUyHDv3j1D/fr1RV7t2rUNd+/eNTz99NOGI0eOiDxmz3tUrptVq1bN8Ouvv8pUhvj4eEP16tVlCgBAP7LGVGcsLj8YT3mO16xKlSqUkJDAkSR9efjwoSw1sfR3Wurfvz8NGTKEzp49S6mpqWJgm/I12fs+eLT7qlWrHinnLn4+b87ltuDudX4OM/57pYYNG4rTG/ycTZs2FXn8uHjxYjFuoUGDBiKPWXuPSpbeL4+uN58WUOI8f39/mQIAADW5fKAvXbo0xcXFyZTJqFGjaMSIESL/9u3bZGxpUo8ePWSpc6SkpFCxYsXEgDg+f82vT8ne9/H111+LgPvUU0+JtJmx5SsC5jfffCNzcsZjESZMmCDOt/MSGBgoSzJw8J4yZQq1bdtWpPlxxowZ6YPwzKy9RyVL75fHBKxfv16mMnAej48AAAANZG3iZ12cLTQ01FCiRIlMXcHGVqRh0aJF4hw3n9s1Bj5DRESELDU2ey10Gz9OXnbrZsq8qKgo0dVdoEABg7GlLl6fstze98Hr3333nVjPKjIy0vDcc8+JdWuvi7vgR44cafD29hbd40uXLn3kb65cuSJed2JiokgnJCSINOcrWXuPynVL75fPxRsPAAxnzpyROQYxRoHHHRgPdGQOAIB+WIqrjl6cfvc6vpSLJ1EBzzB79mxxWSNfJcC6du1KAQEBFBQUJNJKycnJdOjQIerYsSMVLFhQ5lqHOgVqQn1yDL3uZ2Osl2vO4/Sue8yG5Fn4cjxzkGe8binIM/OleI0bN6bp06eLsQG2QJ0CNaE+OQb2s3Zc/hw9eDZu8U+dOpWWL18uWv58TT9Pl5t16l4AALAMgR5cHg8o5Hn+eb7/w4cPix4AntnQnlY+AICnQqAHt8DBfs6cOSLY//XXX3Tr1i0x9S/P5IdWPgBA9pw+GM/SlKgA9ihQoICYC4Dn4DfP5Y/BU6AWDMZzDAzG047TAz2ArXgCIR7MZ/7iVKpUSTwynguA74LHt9QFAHAVCPQANjIHeW698yRCPPlPu3btaODAgekT/QAAuBoEegAbcJDnkfdcF8uVK4fWOwC4DQR6ACv4PvXmVjta7wDgblwh0Dt91D0PwACwhGfGO3nypLjpDV9Hb2uQR50CNaE+OQb2s3YwMx64LL4iY9iwYXZ30aNOgZpQnxwD+1k7uI4eAABAxxDoAQAAdAyBHgAAQMecHuibN28u1wDUgToFakJ9cgzsZ+3g8joAAACN4PI6AAAA0BQCPQDkmjN7/oKDg6lbt24yReJuhiEhITIFAOi6B3Ag/j65Qlee2rR6X9aeNyUlRdz7gCdbqVmzpsg7ffo0tW7dmi5cuECFCxcWeQDOgq57I8yGBGqzVqecefCq5pc+N+/jww8/FPf2nzt3rszJvatXr1LZsmXp3r17MsekZ8+ecs3k7t27YhIk3t4a5f6y9H7Dw8PFrU3NQZ75+flRkyZNKCIiQubkDn6jHAP7WTtOD/SYDQnUhjqVs7S0NPr0009pwYIF4v79nFaDj48PNWvWjCIjI2UO0Y0bN0T62rVrModow4YN1LJlS7F9bm3atIn69OkjUxn4pkfK15EbqE+Ogf2sHZyjB49ibhXyo7KFyMFu5syZVK1aNfL29qbhw4eLbmEz3nbFihVUuXJlypvX9LXhPA6U9evXJy8vL6pXrx7t3r2bvvjiC6pVq5boNuZLhrgr2Uz5P3k9LCyM6tatS0WKFBHbnjhxQpYSxcfHU+/evalUqVJUokQJ6tWrV3rAND8PPyqf09r7YFu2bBHPN3bsWPHc0dHRssTE2uu6f/8+jRkzRvytr6+v2AdmQ4cOpdWrV8uUqZXGr0nZWuP9w9uxnN4jU75P86Py/cbGxlq8LIsPJPiGSACAQA8extwVzI/KbmFu3W7fvp22bdtG586dowcPHtC0adNkqcnmzZtp//79mVrAUVFRtHHjRtENPWDAADEQjFusHDw5YHXv3p1Gjhwpt34Udz3zc1y5coU6d+6caVtuqXJATUxMFOebK1asKO7Jz3LzPj755BMR5Nno0aNpyZIlYl0pp9fFg984QB87dkz8r2+//VaWkBgUd/DgQfF3jG9I9OKLL4pHdunSJfF3vJ9YTu9RKbv3e/nyZXFPhKwqVKhASUlJMgXg4Yw/WoacFq3NnTtXrgGow1qdMlZ7uZbBz8/PYGx5y5TBYAwghqpVq8qU6W9+++03mTLhPGMwkSmDwdhyFnnJyckyx5RnbNnLVOb/bW3brP7++29DpUqVZOrx3ocx+Bt8fHwMd+7cEWl+5PT58+dFmll7XTVq1DCcPHlSpgyG48ePZ3ot48ePN8yfP1+sBwQEGIyteYOxhS3SxoMEQ2BgoFi3JKf3aOn9FipUSLy+rDjPy8tLpnIHv1GOodf9bCmuOnpxeqA3HunLNQB1WKtTlgIGBzLOVy558+aVpaa/yfp94LysrOVlt26mzDtw4IChffv2hpIlS4p8XvLlyydLLf+9tffxn//855FyXt566y25hfXXxcHVfKDAeF1ZfvjwYUOjRo0M9+7dM9SvX1/k1a5d23D37l3D008/bThy5IjIY/a8R+W6WbVq1Qy//vqrTGWIj483VK9eXaZyB79RjqHX/Zw1pjpjcXrXPY+YBVCTtTqlPMdrVqVKFUpISOBIkr48fPhQlppY+jst9e/fn4YMGUJnz56l1NRUMbBN+ZrsfR882n3VqlWPlHMXP58353JbcPc6P4cZ/71Sw4YNxekNfs6mTZuKPH5cvHixGLfQoEEDkcesvUclS++XR9ebTwsocZ6/v79M5Q5+oxwD+1k7OEcPHqd06dIUFxcnUyajRo2iESNGiPzbt2+TsaVJPXr0kKXOkZKSQsWKFRMD4vj8Nb8+JXvfx9dffy0CLl93rmRs+YqA+c0338icnPFYhAkTJojz7bwEBgbKkgwcvKdMmUJt27YVaX6cMWNG+iA8M2vvUcnS++UxAevXr5epDJzH4yMAwChrEz/rAqA3oaGhhhIlSmTqCja2Ig2LFi0S57j53K4x8BkiIiJkqbHZa6Hb+HHysls3U+ZFRUWJru4CBQoYjC118fqU5fa+D17/7rvvxHpWkZGRhueee06sW3td3AU/cuRIg7e3t+geX7p06SN/c+XKFfG6ExMTRTohIUGkOV/J2ntUrlt6v3wu3ngAYDhz5ozMMYgxCjzuwHigI3MAnMdSXHX0gpnxAMCtzZ49W1zWyFcJsK5du1JAQAAFBQWJtFJycjIdOnSIOnbsSAULFpS5ANoxxnq55jxO77rHbEigNtQpz8KX45mDPON1S0GemS/Fe/bZZ+n9998XYwOsQX1yDOxn7Tg90GM2JFAb6hTkhFv8PMZg2bJlouXPYxh4utysU/eaoT45BvazdjAYDwA8zr/+9S/64IMPxCyH3JXPAwWfeeYZm1v5AO4EgR4APBIHew7saWlpYoa9mzdv0rp168SsfdZa+QDuxOmD8UJDQ2nSpEkyBZB7lqZEBbAH39mPB1HxHPzt2rUTUwuDtvQaC1xhMJ7TAz0PwMBECaAm1CmwFc/pP27cONGqZ08++aSY1CdfvnzihkB8Fzzuykd90p5ev7cI9AAATqIM8nwTnD///JPat29Pr732WvpEPwC5hUAPAOAE5iDPv29lypRJb73zOoCaEOgBAByM71PP0/hyqx2td9AaAj0AgAPxzHjR0dHiWnq03sERXCHQY2Y80B3UKcgOX5ExbNgwu4I86pNjYD9rBzPjge6gToGaUJ8cA/tZO5gwBwAAQMcQ6AEAAHQMgR4AAEDHnB7omzdvLtcA1IE6BWpCfXIM7Gft4PI6AAAAjeDyOgAAANAUAj0AAICOIdADAADomNMDPWZDArWhToGaUJ8cA/tZO04fjBcaGkqTJk2SKdCrlJQU2rhxI124kChztHPx4kWqXLmyTKmPvxMPHtwVdzvz8/OTuaA1vhnNzz/voIcPTfeOdxSt61N28ufPS76+Neill14yrueXuTlz1j5Sg7P2sxpy+qxwUxsjPopr0aKFTIFeLVr0CTVv3o7Klasoc9xbSsotiopaR8OGDSFvb2+ZC1pZt26dMRBcoV69XrU56OlBfPxx+vtvft+9ZE72PHUfuYrsPiuMujcyB3lcxqdvf/55UzdBnhUpUpQGDhxOYWFhMge0dOLEKerbd5DHBbBaterT2bPnZCpnnrqPXIU9n5WjPXag58Cc0wQHzZo1Q/CGdO7YlWjNgwdEqampMgVaKlSosFzzPKmptn13PHkfuQpbPytHy1WL/q+//qIdO3bIVIbt27fT33//LVO2cYXuDQAAAL3JVaCfNm0azZkzR6YycN706dNlyiQ+Pp569+5NpUqVohIlSojzGNeuXZOlmbvueX3Tpk2iW5+3LVu2LA0aNIiuX78utwAAAABb5CrQ9+vXjy5cuEDHjh2TOURHjx4Voyd5RLJSnz59aMyYMZSYmCj+pmLFijR58mRZ+qigoCCaOXOm2P7w4cOUlpZG48aNk6UAAABgi1wF+rx584pWfUhIiMwhsc55XKbEBwDt2rWjwoULU/HixWnWrFkUHR0tSx/15ZdfUvv27alo0aJUoUIFmj9/Pv3www+yFAAAAGyRq0DPuKV+6tQpSkhIEEtcXJzIy4pb8a+88gqVKVNGdM1zsE9OTpalj2rQoIFcM+G/Q9c9AACAfXId6LnlPnXqVJo7dy599NFH9O6771ocbT906FCqVauW6IZ/8OAB3blzhx4+fChLH5W1RwDAFlWqlJBrAI9yxfrhjnXW3V6zp/8uqBJNeZBdbGwsHTx4ULTaLTlw4IA4IOBz83ydJ8/gBMACAhpRfPxpmTL57rsI8eX87rtImWPy66+nqXXrxjKVM0//cnsS/qytLZ7Onb5nK1YsIV/fsvS//y2TObbDZ/0oVQI9t+D3798vFkutecat+eXLl9Pt27fFAcHIkSNlCXi6tm070vbtW2XKZP/+PcaDwkq0b99umWMSE7NTbJ+d33//S66BJ+HPXblkl+fJ3Ol7tn79Wpo5cy59++0amZM7nv75O6x//PPPPxcD7EqWLCkurRs1apQsAU/Xrl1H2rHjJ5ky2b8/hsaMmUh79+6SOSZ79mT8APGR+1dfraamTetQ1aol0/OyPpoXsx9/3EKdOweIFkOrVg1p0aKPMk18w9tmfV7Qj61bo6lnzxeobt0q1KhRTQoMfIP+/POGLM3+87dWb86fP2tswAymZ56pJp773/9+jW7cyDyuaN26NeJvq1f3oTZtnqWIiPWyRHvu8j07efI4eXkVpf79B4n5VU6dOiFLMvBzd+3almrWLGd8X8/Rxo3fivzsXo/50WzNmpWih4M/B35cu3aVLDHh7a3VE3fy2IHelglulNs0atRItOTv3bsnBubxpXLK8uzWlWz5n+B+mjdvTUeOHBTjNtjNm39TUtIl6tfvNfFo/rHkSywPH441bh8g0iwi4lsKD//BWKf+lDkm5iN4c2vOnI6N3Udz586kDz74iI4f/8148BlOv/yyl5YtWyjKzbJ7XnB/s2fPoLfeetf4ucdRdPQuUa+mTXtblppk/fxtqTejRg2hwYNHiOfdt+8ElStXgebM+a8sJRFkFyyYY3yeT8RzhIQsNC4zZKn23OV7xgdDQ4a8Ltb79Rv0SKt+27bvafLkCTRxYpDxdf5KS5euMn6Om0RZdq9HKTp6szjomDNnIR07liAeFy6cIwK7ki31xF1gxBs4HV9y2aBB4/TuQ/5BaNKkKRUo8AQ991wzY36MyD916jg9/XQdsb3Z9OkhouvRVvPmhdBHHy02Pn8z8TxPPVVdpPnHRcne5wX3sWjRZ9SiRWsqUqQIlS1bzvhZB9POndtkqUnWz9+WevP99zHG5w2gQoUK0ZNPFqO3334vU1f54sWh9P77H1KzZi3F/27evBXNmPHohGNacYfvWWrqA4qJ2U5durwk0r169aMtWyJFvtnHH/N+nEMdOnSiokWfJD+/OsYDiNWy1LpPP/3Y+PcfiTrAl2/z43//+yEtWbJAbmFiSz1xFwj04BLatXve+KNo6lbk7kT+grFmzVql/zBZOm/o61tTrtmGf8R69OhI1aqVMv74eIsuQ+46vHjxgtzCxN7nBfdRu3Y9uWZSqpTPI12yWT9/W+rNpUsX6Y03BlGjRr6i67dOncp05cofspTozJk48vfPfH8QDvqO5Orfs61bv6cXXugqDj5Y8eIljAchzY2t+B9Fmp08eSz9dT+Os2fPPLLf+aCLByAq2VJP3AUCPbiEtm070I4dptYPtyz4i8f40Xz+0HTesINYNzP/INiK74u/f/9JSki4Tr/9dkN0GXL3HqeV7H1ecB+2XLqb9fO3pd5MnDjKGNh8jS3QXXT+/DVj4Lic6RJiVzj16OrfM+6m554P8/l1Xngcg7L7Xqub92QdSK6nS7yd8k7OnfuNli5dTjNnhoglOHgOhYV9aTz6vSK3AE9Ts6afGL/BrZ7ExN/Tj6br1WtAyclJdPXqH5SUlGhsATwt8m3Bl3Fmnauhfv2G9MMP38kUgG1sqTdHjx6iceP+Q+XKlRd178iRQ7LEhLuYubtcydxd7iiu/D27fv2a2B+nTiWmn1/n5dSpi8aDj13pYwhq164r0tmx9HqU+L3x1QZK/H/tec/uxqGB/uLFJJo6dQZFRf1gPIJsR0OGjBLLoEEj6emnG9OaNd8ag36IOBoEz9OmTQcKDZ1Fzz7rn340nS9fPnEecdmyReJ8nz0qVKhEu3dvF4NozCZNmkwffvgBrV//leiG4x+Xn3/+kfr37y63AHiULfWGW/NffbVKDHY7fvyIGDCmNHr0BDGYi4MK/8bt3bubZsx4R5Y6jqt+zzZsWEfPP99ZnDdX4vPwHTq8mD6yPjAwSOy3bdt+oFu3bomDlpEjh4gyZun1KL3xxjiaPv1tsf+Vn8Po0YFyC/1xWKDfuXMfffLJpzR8+Gjq2bOfON+hVL58Rerd+zVj2Ws0a9ZsOnv2rCwBT8HnD3lErHK0L+N0WNjnj5w3tGbq1A9oypSJVKOGj+gCZC1btqHPPvtSXKfbvHk943M2EZNzjB//ligHsMSWejN37mIKD//G2DquKi6tGzRouCwx4frN23MXf/36T9E774ynoCDHjbo3c9XvGW/bp88Amcqsb9+B6d33fJqBB8999NEH1LBhDRo1aih17pxxAGHp9Sh16tRNXFL49tvjjJ9DVfE4btxb1LFjJ7mF/uQxHvXkeOIouwlw7HHu3O/0v/99YTzqelPm5IyvtVy+fL7xA5ssRjyC+5s2bRaNGDFWpvRj3boVxtbLJJkCrfDpPe7580RhYcuMgct6y9+T95GrsPRZucLYDM1b9A8fGowt+SX0+utjZI51fI5l2LDRtHjxYpkDAAAAj0PzQL9vXyw1aPCsCN72KFSoCBUtWhwD9AAAAHJB80C/fft2atWqjUzZJyCgPW3dmnluZgAAALCd5oH+3r379MQTBWXKPj4+5XO8Zz0AAADkzGGj7gEAAMDxNA/0uRm1r8aIfwAAAE+meaDPly9PplsT2uPmzRvk7e0tUwAAAGAvzQN9q1YtxS0LH8fu3T9Tx472Td4ArkmPvTP58+cV04kCaAk9m+7DVT8rzQN9+/atad++7Oclzk6ePA/p8uVLVLlyZZkD7qxo0cJ0+/ZtmdKH//u/L6lBgwYyBVp6/nm+GYvprmue5PLlJKpSxbbbw3rqPnIV9nxWjuaQmfFOnDgl5rcfMGCYzMkZd/evXPkxjRgxgsqUKSNzwZ1dvvwHrVnzFd26dcclZorKDf5O5M1roGbN/I0/ruhxcpSNGyPpp5+2UalSnvGbwD1GJUsWo6FDh9g8Q6in7SNXkdNn5Qq/dw4J9Cw6+gc6duwUvfpqzsE+T540Cgv7lF544Xl69tlnZS4AAID78ahAz06diqNVq8LI378VNW7cNNNseQ8fPqDY2N3Gg4FDNGrUKCpfvrwsAQAAcE8eF+jN9uzZQ7t3xxD/67i4OKpbtw4VLPgEtW3bFuc8AQBANzw20CuFhobi7l8AAKBLrhDoMTMeAACAjiHQAwAA6BgCPQAAgI4h0AMAAOgYAj0AAICOIdADAADomKqX161bt44uXrwoU7bha+pbtGghU7bh+e/79u0rUwAAAK4J19Eb4Tp6AADQK1xHDwAAAJpCoAcAANAxBHoAAAAdQ6AHAADQMQR6AAAAHUOgBwAA0DEEegAAAB1DoAcAANAxBHoAAAAdQ6AHAADQMQR6AAAAHUOgBwAA0DEEegAAAB1DoAcAANAxBHoAAAAdQ6AHAADQMQR6AAAAHXNqoE9JSaETJ05QamqqzAEAAAA1OS3Qc3APDQ2lESNG0MKFC2UuAAAAqMlpgZ6D/IABA6hFixYUEBBAy5cvlyUAAACgljxpaWkGuW5Rnjx55Jp6Vq5cSXXr1iV/f3+ZQxQVFSUeu3btKh4BAADcncGQY4h1CIe36KOjo8nb2ztTkGcc4JOSkujgwYMyBwAAAHLLoYGeg/jFixepR48eMiczPl+/detWSkhIkDkAAACQGw4L9Bzgv//+exHMczJp0iRasWIF3bx5U+YAAADA43JIoOegvWzZMnr77bdlTvby589PU6ZMoVmzZuGyOwAAgFzSPNBzsOagzcGbg7gtihQpQoGBgRQcHCxzAAAA4HFoHug5WHPQ5uBtj/Lly9Mrr7xCixcvljkAAABgL00DPXfX88A7DtqPgy/B8/Pzo/DwcJkDAAAA9tAs0HNw9vX1pQYNGsicx9OxY0e6e/cu7dq1S+YAAACArTQJ9Hv27BHz2HOQVgPPoPfLL7/Q2bNnZQ4AAADYQvVAz8F47969NGjQIJmjDr7sbvXq1XTlyhWZAwAAANaoGug5CK9du5befPNNmaOud955RwzO494CAAAAsE7Vue75xjTczW7vCHt78MEEz57H/wcAAMCVucJc9065qQ0AAIAn8Mib2gAAAIDjINADAADoGAI9AACAjiHQAwAA6JjVwXgAAADgvtCiBwAA0DEEegAAAB1DoAcAANAxBHoAAAAdQ6AHAADQMQR6AAAAHUOgBwAA0DEEegAAAB1DoAcAANAxBHoAAAAdQ6AHAADQMQR6AAAAHUOgBwAA0DEEegAAAB1DoAcAANAxBHoAAAAdQ6AHAADQLaL/B+UHApjMK8eyAAAAAElFTkSuQmCC;" vertex="1" parent="1">
                    <mxGeometry x="400" y="210" width="506" height="460" as="geometry"/>
                </mxCell>
            </root>
        </mxGraphModel>
    </diagram>
</mxfile>